<mxfile host="app.diagrams.net" agent="Mozilla/5.0 (Windows NT 10.0; Win64; x64) AppleWebKit/537.36 (KHTML, like Gecko) Chrome/131.0.0.0 Safari/537.36" version="25.0.3" pages="3">
  <diagram name="1-100" id="izuBfGnx0toaspZOWVUU">
    <mxGraphModel dx="1050" dy="557" grid="1" gridSize="10" guides="1" tooltips="1" connect="1" arrows="1" fold="1" page="1" pageScale="1" pageWidth="827" pageHeight="1169" math="0" shadow="0">
      <root>
        <mxCell id="0" />
        <mxCell id="1" parent="0" />
        <mxCell id="jPA7jFr4jwmh0qoZDK_S-9" value="" style="edgeStyle=orthogonalEdgeStyle;rounded=0;orthogonalLoop=1;jettySize=auto;html=1;" parent="1" source="jPA7jFr4jwmh0qoZDK_S-1" target="jPA7jFr4jwmh0qoZDK_S-4" edge="1">
          <mxGeometry relative="1" as="geometry" />
        </mxCell>
        <mxCell id="jPA7jFr4jwmh0qoZDK_S-1" value="INICIO" style="strokeWidth=2;html=1;shape=mxgraph.flowchart.start_1;whiteSpace=wrap;" parent="1" vertex="1">
          <mxGeometry x="350" y="20" width="100" height="60" as="geometry" />
        </mxCell>
        <mxCell id="jPA7jFr4jwmh0qoZDK_S-3" value="FIM" style="strokeWidth=2;html=1;shape=mxgraph.flowchart.start_1;whiteSpace=wrap;" parent="1" vertex="1">
          <mxGeometry x="350" y="700" width="100" height="60" as="geometry" />
        </mxCell>
        <mxCell id="jPA7jFr4jwmh0qoZDK_S-10" value="" style="edgeStyle=orthogonalEdgeStyle;rounded=0;orthogonalLoop=1;jettySize=auto;html=1;" parent="1" source="jPA7jFr4jwmh0qoZDK_S-4" target="jPA7jFr4jwmh0qoZDK_S-5" edge="1">
          <mxGeometry relative="1" as="geometry" />
        </mxCell>
        <mxCell id="jPA7jFr4jwmh0qoZDK_S-4" value="NUM" style="shape=parallelogram;html=1;strokeWidth=2;perimeter=parallelogramPerimeter;whiteSpace=wrap;rounded=1;arcSize=12;size=0.23;" parent="1" vertex="1">
          <mxGeometry x="350" y="120" width="100" height="60" as="geometry" />
        </mxCell>
        <mxCell id="jPA7jFr4jwmh0qoZDK_S-11" value="" style="edgeStyle=orthogonalEdgeStyle;rounded=0;orthogonalLoop=1;jettySize=auto;html=1;" parent="1" source="jPA7jFr4jwmh0qoZDK_S-5" target="jPA7jFr4jwmh0qoZDK_S-6" edge="1">
          <mxGeometry relative="1" as="geometry" />
        </mxCell>
        <mxCell id="jPA7jFr4jwmh0qoZDK_S-5" value="CONTADOR = 1" style="rounded=1;whiteSpace=wrap;html=1;absoluteArcSize=1;arcSize=14;strokeWidth=2;" parent="1" vertex="1">
          <mxGeometry x="335" y="230" width="130" height="40" as="geometry" />
        </mxCell>
        <mxCell id="jPA7jFr4jwmh0qoZDK_S-30" style="edgeStyle=orthogonalEdgeStyle;rounded=0;orthogonalLoop=1;jettySize=auto;html=1;entryX=1;entryY=0.5;entryDx=0;entryDy=0;entryPerimeter=0;" parent="1" source="jPA7jFr4jwmh0qoZDK_S-6" target="jPA7jFr4jwmh0qoZDK_S-3" edge="1">
          <mxGeometry relative="1" as="geometry">
            <mxPoint x="620" y="730" as="targetPoint" />
            <Array as="points">
              <mxPoint x="600" y="375" />
              <mxPoint x="600" y="730" />
            </Array>
          </mxGeometry>
        </mxCell>
        <mxCell id="jPA7jFr4jwmh0qoZDK_S-31" value="F" style="edgeLabel;html=1;align=center;verticalAlign=middle;resizable=0;points=[];" parent="jPA7jFr4jwmh0qoZDK_S-30" vertex="1" connectable="0">
          <mxGeometry x="-0.7898" relative="1" as="geometry">
            <mxPoint as="offset" />
          </mxGeometry>
        </mxCell>
        <mxCell id="jPA7jFr4jwmh0qoZDK_S-32" value="" style="edgeStyle=orthogonalEdgeStyle;rounded=0;orthogonalLoop=1;jettySize=auto;html=1;" parent="1" source="jPA7jFr4jwmh0qoZDK_S-6" target="jPA7jFr4jwmh0qoZDK_S-7" edge="1">
          <mxGeometry relative="1" as="geometry" />
        </mxCell>
        <mxCell id="jPA7jFr4jwmh0qoZDK_S-33" value="V" style="edgeLabel;html=1;align=center;verticalAlign=middle;resizable=0;points=[];" parent="jPA7jFr4jwmh0qoZDK_S-32" vertex="1" connectable="0">
          <mxGeometry x="-0.528" y="2" relative="1" as="geometry">
            <mxPoint x="-2" as="offset" />
          </mxGeometry>
        </mxCell>
        <mxCell id="jPA7jFr4jwmh0qoZDK_S-6" value="CONTADOR &amp;lt;= 100" style="strokeWidth=2;html=1;shape=mxgraph.flowchart.decision;whiteSpace=wrap;" parent="1" vertex="1">
          <mxGeometry x="321" y="330" width="158" height="90" as="geometry" />
        </mxCell>
        <mxCell id="jPA7jFr4jwmh0qoZDK_S-14" value="" style="edgeStyle=orthogonalEdgeStyle;rounded=0;orthogonalLoop=1;jettySize=auto;html=1;" parent="1" source="jPA7jFr4jwmh0qoZDK_S-7" target="jPA7jFr4jwmh0qoZDK_S-8" edge="1">
          <mxGeometry relative="1" as="geometry" />
        </mxCell>
        <mxCell id="jPA7jFr4jwmh0qoZDK_S-7" value="RES = NUM * CONTADOR" style="rounded=1;whiteSpace=wrap;html=1;absoluteArcSize=1;arcSize=14;strokeWidth=2;" parent="1" vertex="1">
          <mxGeometry x="335" y="470" width="130" height="40" as="geometry" />
        </mxCell>
        <mxCell id="jPA7jFr4jwmh0qoZDK_S-24" value="" style="edgeStyle=orthogonalEdgeStyle;rounded=0;orthogonalLoop=1;jettySize=auto;html=1;" parent="1" source="jPA7jFr4jwmh0qoZDK_S-8" target="jPA7jFr4jwmh0qoZDK_S-16" edge="1">
          <mxGeometry relative="1" as="geometry" />
        </mxCell>
        <mxCell id="jPA7jFr4jwmh0qoZDK_S-8" value="RES" style="strokeWidth=2;html=1;shape=mxgraph.flowchart.display;whiteSpace=wrap;" parent="1" vertex="1">
          <mxGeometry x="349" y="540" width="100" height="60" as="geometry" />
        </mxCell>
        <mxCell id="jPA7jFr4jwmh0qoZDK_S-25" value="" style="edgeStyle=orthogonalEdgeStyle;rounded=0;orthogonalLoop=1;jettySize=auto;html=1;" parent="1" source="jPA7jFr4jwmh0qoZDK_S-16" target="jPA7jFr4jwmh0qoZDK_S-3" edge="1">
          <mxGeometry relative="1" as="geometry" />
        </mxCell>
        <mxCell id="jPA7jFr4jwmh0qoZDK_S-16" value="ADD 1 TO CONTADOR" style="rounded=1;whiteSpace=wrap;html=1;absoluteArcSize=1;arcSize=14;strokeWidth=2;" parent="1" vertex="1">
          <mxGeometry x="335" y="630" width="130" height="40" as="geometry" />
        </mxCell>
        <mxCell id="jPA7jFr4jwmh0qoZDK_S-28" style="edgeStyle=orthogonalEdgeStyle;rounded=0;orthogonalLoop=1;jettySize=auto;html=1;entryX=0;entryY=0.5;entryDx=0;entryDy=0;entryPerimeter=0;" parent="1" source="jPA7jFr4jwmh0qoZDK_S-16" target="jPA7jFr4jwmh0qoZDK_S-6" edge="1">
          <mxGeometry relative="1" as="geometry">
            <Array as="points">
              <mxPoint x="200" y="650" />
              <mxPoint x="200" y="375" />
            </Array>
          </mxGeometry>
        </mxCell>
      </root>
    </mxGraphModel>
  </diagram>
  <diagram id="3bzkTcOTTycpPnC02xgM" name="100-1">
    <mxGraphModel dx="1050" dy="557" grid="1" gridSize="10" guides="1" tooltips="1" connect="1" arrows="1" fold="1" page="1" pageScale="1" pageWidth="827" pageHeight="1169" math="0" shadow="0">
      <root>
        <mxCell id="0" />
        <mxCell id="1" parent="0" />
        <mxCell id="g86yTimxDKxkD2Ud81ap-1" value="" style="edgeStyle=orthogonalEdgeStyle;rounded=0;orthogonalLoop=1;jettySize=auto;html=1;" edge="1" parent="1" source="g86yTimxDKxkD2Ud81ap-2" target="g86yTimxDKxkD2Ud81ap-5">
          <mxGeometry relative="1" as="geometry" />
        </mxCell>
        <mxCell id="g86yTimxDKxkD2Ud81ap-2" value="INICIO" style="strokeWidth=2;html=1;shape=mxgraph.flowchart.start_1;whiteSpace=wrap;" vertex="1" parent="1">
          <mxGeometry x="350" y="20" width="100" height="60" as="geometry" />
        </mxCell>
        <mxCell id="g86yTimxDKxkD2Ud81ap-3" value="FIM" style="strokeWidth=2;html=1;shape=mxgraph.flowchart.start_1;whiteSpace=wrap;" vertex="1" parent="1">
          <mxGeometry x="350" y="700" width="100" height="60" as="geometry" />
        </mxCell>
        <mxCell id="g86yTimxDKxkD2Ud81ap-4" value="" style="edgeStyle=orthogonalEdgeStyle;rounded=0;orthogonalLoop=1;jettySize=auto;html=1;" edge="1" parent="1" source="g86yTimxDKxkD2Ud81ap-5" target="g86yTimxDKxkD2Ud81ap-7">
          <mxGeometry relative="1" as="geometry" />
        </mxCell>
        <mxCell id="g86yTimxDKxkD2Ud81ap-5" value="NUM" style="shape=parallelogram;html=1;strokeWidth=2;perimeter=parallelogramPerimeter;whiteSpace=wrap;rounded=1;arcSize=12;size=0.23;" vertex="1" parent="1">
          <mxGeometry x="350" y="120" width="100" height="60" as="geometry" />
        </mxCell>
        <mxCell id="g86yTimxDKxkD2Ud81ap-6" value="" style="edgeStyle=orthogonalEdgeStyle;rounded=0;orthogonalLoop=1;jettySize=auto;html=1;" edge="1" parent="1" source="g86yTimxDKxkD2Ud81ap-7" target="g86yTimxDKxkD2Ud81ap-12">
          <mxGeometry relative="1" as="geometry" />
        </mxCell>
        <mxCell id="g86yTimxDKxkD2Ud81ap-7" value="CONTADOR = 100" style="rounded=1;whiteSpace=wrap;html=1;absoluteArcSize=1;arcSize=14;strokeWidth=2;" vertex="1" parent="1">
          <mxGeometry x="335" y="230" width="130" height="40" as="geometry" />
        </mxCell>
        <mxCell id="g86yTimxDKxkD2Ud81ap-8" style="edgeStyle=orthogonalEdgeStyle;rounded=0;orthogonalLoop=1;jettySize=auto;html=1;entryX=1;entryY=0.5;entryDx=0;entryDy=0;entryPerimeter=0;" edge="1" parent="1" source="g86yTimxDKxkD2Ud81ap-12" target="g86yTimxDKxkD2Ud81ap-3">
          <mxGeometry relative="1" as="geometry">
            <mxPoint x="620" y="730" as="targetPoint" />
            <Array as="points">
              <mxPoint x="600" y="375" />
              <mxPoint x="600" y="730" />
            </Array>
          </mxGeometry>
        </mxCell>
        <mxCell id="g86yTimxDKxkD2Ud81ap-9" value="F" style="edgeLabel;html=1;align=center;verticalAlign=middle;resizable=0;points=[];" vertex="1" connectable="0" parent="g86yTimxDKxkD2Ud81ap-8">
          <mxGeometry x="-0.7898" relative="1" as="geometry">
            <mxPoint as="offset" />
          </mxGeometry>
        </mxCell>
        <mxCell id="g86yTimxDKxkD2Ud81ap-10" value="" style="edgeStyle=orthogonalEdgeStyle;rounded=0;orthogonalLoop=1;jettySize=auto;html=1;" edge="1" parent="1" source="g86yTimxDKxkD2Ud81ap-12" target="g86yTimxDKxkD2Ud81ap-14">
          <mxGeometry relative="1" as="geometry" />
        </mxCell>
        <mxCell id="g86yTimxDKxkD2Ud81ap-11" value="V" style="edgeLabel;html=1;align=center;verticalAlign=middle;resizable=0;points=[];" vertex="1" connectable="0" parent="g86yTimxDKxkD2Ud81ap-10">
          <mxGeometry x="-0.528" y="2" relative="1" as="geometry">
            <mxPoint x="-2" as="offset" />
          </mxGeometry>
        </mxCell>
        <mxCell id="g86yTimxDKxkD2Ud81ap-12" value="CONTADOR &amp;lt;= 1" style="strokeWidth=2;html=1;shape=mxgraph.flowchart.decision;whiteSpace=wrap;" vertex="1" parent="1">
          <mxGeometry x="321" y="330" width="158" height="90" as="geometry" />
        </mxCell>
        <mxCell id="g86yTimxDKxkD2Ud81ap-13" value="" style="edgeStyle=orthogonalEdgeStyle;rounded=0;orthogonalLoop=1;jettySize=auto;html=1;" edge="1" parent="1" source="g86yTimxDKxkD2Ud81ap-14" target="g86yTimxDKxkD2Ud81ap-16">
          <mxGeometry relative="1" as="geometry" />
        </mxCell>
        <mxCell id="g86yTimxDKxkD2Ud81ap-14" value="RES = NUM * CONTADOR" style="rounded=1;whiteSpace=wrap;html=1;absoluteArcSize=1;arcSize=14;strokeWidth=2;" vertex="1" parent="1">
          <mxGeometry x="335" y="470" width="130" height="40" as="geometry" />
        </mxCell>
        <mxCell id="g86yTimxDKxkD2Ud81ap-15" value="" style="edgeStyle=orthogonalEdgeStyle;rounded=0;orthogonalLoop=1;jettySize=auto;html=1;" edge="1" parent="1" source="g86yTimxDKxkD2Ud81ap-16" target="g86yTimxDKxkD2Ud81ap-18">
          <mxGeometry relative="1" as="geometry" />
        </mxCell>
        <mxCell id="g86yTimxDKxkD2Ud81ap-16" value="RES" style="strokeWidth=2;html=1;shape=mxgraph.flowchart.display;whiteSpace=wrap;" vertex="1" parent="1">
          <mxGeometry x="349" y="540" width="100" height="60" as="geometry" />
        </mxCell>
        <mxCell id="g86yTimxDKxkD2Ud81ap-17" value="" style="edgeStyle=orthogonalEdgeStyle;rounded=0;orthogonalLoop=1;jettySize=auto;html=1;" edge="1" parent="1" source="g86yTimxDKxkD2Ud81ap-18" target="g86yTimxDKxkD2Ud81ap-3">
          <mxGeometry relative="1" as="geometry" />
        </mxCell>
        <mxCell id="g86yTimxDKxkD2Ud81ap-18" value="SUBTRAIR 1 DE CONTADOR" style="rounded=1;whiteSpace=wrap;html=1;absoluteArcSize=1;arcSize=14;strokeWidth=2;" vertex="1" parent="1">
          <mxGeometry x="335" y="630" width="130" height="40" as="geometry" />
        </mxCell>
        <mxCell id="g86yTimxDKxkD2Ud81ap-19" style="edgeStyle=orthogonalEdgeStyle;rounded=0;orthogonalLoop=1;jettySize=auto;html=1;entryX=0;entryY=0.5;entryDx=0;entryDy=0;entryPerimeter=0;" edge="1" parent="1" source="g86yTimxDKxkD2Ud81ap-18" target="g86yTimxDKxkD2Ud81ap-12">
          <mxGeometry relative="1" as="geometry">
            <Array as="points">
              <mxPoint x="200" y="650" />
              <mxPoint x="200" y="375" />
            </Array>
          </mxGeometry>
        </mxCell>
      </root>
    </mxGraphModel>
  </diagram>
  <diagram id="msde8Y3BPwNTv7qh_geX" name="Page-3">
    <mxGraphModel dx="1050" dy="557" grid="1" gridSize="10" guides="1" tooltips="1" connect="1" arrows="1" fold="1" page="1" pageScale="1" pageWidth="827" pageHeight="1169" math="0" shadow="0">
      <root>
        <mxCell id="0" />
        <mxCell id="1" parent="0" />
        <mxCell id="yFzUAEVTU4-DVn3m8aGA-1" value="" style="edgeStyle=orthogonalEdgeStyle;rounded=0;orthogonalLoop=1;jettySize=auto;html=1;" edge="1" parent="1" source="yFzUAEVTU4-DVn3m8aGA-2" target="yFzUAEVTU4-DVn3m8aGA-5">
          <mxGeometry relative="1" as="geometry" />
        </mxCell>
        <mxCell id="yFzUAEVTU4-DVn3m8aGA-2" value="INICIO" style="strokeWidth=2;html=1;shape=mxgraph.flowchart.start_1;whiteSpace=wrap;" vertex="1" parent="1">
          <mxGeometry x="350" y="20" width="100" height="60" as="geometry" />
        </mxCell>
        <mxCell id="yFzUAEVTU4-DVn3m8aGA-3" value="FIM" style="strokeWidth=2;html=1;shape=mxgraph.flowchart.start_1;whiteSpace=wrap;" vertex="1" parent="1">
          <mxGeometry x="350" y="700" width="100" height="60" as="geometry" />
        </mxCell>
        <mxCell id="yFzUAEVTU4-DVn3m8aGA-4" value="" style="edgeStyle=orthogonalEdgeStyle;rounded=0;orthogonalLoop=1;jettySize=auto;html=1;" edge="1" parent="1" source="yFzUAEVTU4-DVn3m8aGA-5" target="yFzUAEVTU4-DVn3m8aGA-7">
          <mxGeometry relative="1" as="geometry" />
        </mxCell>
        <mxCell id="yFzUAEVTU4-DVn3m8aGA-5" value="NUM" style="shape=parallelogram;html=1;strokeWidth=2;perimeter=parallelogramPerimeter;whiteSpace=wrap;rounded=1;arcSize=12;size=0.23;" vertex="1" parent="1">
          <mxGeometry x="350" y="120" width="100" height="60" as="geometry" />
        </mxCell>
        <mxCell id="yFzUAEVTU4-DVn3m8aGA-6" value="" style="edgeStyle=orthogonalEdgeStyle;rounded=0;orthogonalLoop=1;jettySize=auto;html=1;" edge="1" parent="1" source="yFzUAEVTU4-DVn3m8aGA-7" target="yFzUAEVTU4-DVn3m8aGA-12">
          <mxGeometry relative="1" as="geometry" />
        </mxCell>
        <mxCell id="yFzUAEVTU4-DVn3m8aGA-7" value="CONTADOR = 1" style="rounded=1;whiteSpace=wrap;html=1;absoluteArcSize=1;arcSize=14;strokeWidth=2;" vertex="1" parent="1">
          <mxGeometry x="335" y="230" width="130" height="40" as="geometry" />
        </mxCell>
        <mxCell id="yFzUAEVTU4-DVn3m8aGA-8" style="edgeStyle=orthogonalEdgeStyle;rounded=0;orthogonalLoop=1;jettySize=auto;html=1;entryX=1;entryY=0.5;entryDx=0;entryDy=0;entryPerimeter=0;" edge="1" parent="1" source="yFzUAEVTU4-DVn3m8aGA-12" target="yFzUAEVTU4-DVn3m8aGA-3">
          <mxGeometry relative="1" as="geometry">
            <mxPoint x="620" y="730" as="targetPoint" />
            <Array as="points">
              <mxPoint x="600" y="375" />
              <mxPoint x="600" y="730" />
            </Array>
          </mxGeometry>
        </mxCell>
        <mxCell id="yFzUAEVTU4-DVn3m8aGA-9" value="F" style="edgeLabel;html=1;align=center;verticalAlign=middle;resizable=0;points=[];" vertex="1" connectable="0" parent="yFzUAEVTU4-DVn3m8aGA-8">
          <mxGeometry x="-0.7898" relative="1" as="geometry">
            <mxPoint as="offset" />
          </mxGeometry>
        </mxCell>
        <mxCell id="yFzUAEVTU4-DVn3m8aGA-10" value="" style="edgeStyle=orthogonalEdgeStyle;rounded=0;orthogonalLoop=1;jettySize=auto;html=1;" edge="1" parent="1" source="yFzUAEVTU4-DVn3m8aGA-12" target="yFzUAEVTU4-DVn3m8aGA-14">
          <mxGeometry relative="1" as="geometry" />
        </mxCell>
        <mxCell id="yFzUAEVTU4-DVn3m8aGA-11" value="V" style="edgeLabel;html=1;align=center;verticalAlign=middle;resizable=0;points=[];" vertex="1" connectable="0" parent="yFzUAEVTU4-DVn3m8aGA-10">
          <mxGeometry x="-0.528" y="2" relative="1" as="geometry">
            <mxPoint x="-2" as="offset" />
          </mxGeometry>
        </mxCell>
        <mxCell id="yFzUAEVTU4-DVn3m8aGA-12" value="CONTADOR &amp;lt;= 100" style="strokeWidth=2;html=1;shape=mxgraph.flowchart.decision;whiteSpace=wrap;" vertex="1" parent="1">
          <mxGeometry x="321" y="330" width="158" height="90" as="geometry" />
        </mxCell>
        <mxCell id="yFzUAEVTU4-DVn3m8aGA-13" value="" style="edgeStyle=orthogonalEdgeStyle;rounded=0;orthogonalLoop=1;jettySize=auto;html=1;" edge="1" parent="1" source="yFzUAEVTU4-DVn3m8aGA-14" target="yFzUAEVTU4-DVn3m8aGA-16">
          <mxGeometry relative="1" as="geometry" />
        </mxCell>
        <mxCell id="yFzUAEVTU4-DVn3m8aGA-14" value="RES = NUM * CONTADOR" style="rounded=1;whiteSpace=wrap;html=1;absoluteArcSize=1;arcSize=14;strokeWidth=2;" vertex="1" parent="1">
          <mxGeometry x="335" y="470" width="130" height="40" as="geometry" />
        </mxCell>
        <mxCell id="yFzUAEVTU4-DVn3m8aGA-15" value="" style="edgeStyle=orthogonalEdgeStyle;rounded=0;orthogonalLoop=1;jettySize=auto;html=1;" edge="1" parent="1" source="yFzUAEVTU4-DVn3m8aGA-16" target="yFzUAEVTU4-DVn3m8aGA-18">
          <mxGeometry relative="1" as="geometry" />
        </mxCell>
        <mxCell id="yFzUAEVTU4-DVn3m8aGA-16" value="RES" style="strokeWidth=2;html=1;shape=mxgraph.flowchart.display;whiteSpace=wrap;" vertex="1" parent="1">
          <mxGeometry x="349" y="540" width="100" height="60" as="geometry" />
        </mxCell>
        <mxCell id="yFzUAEVTU4-DVn3m8aGA-17" value="" style="edgeStyle=orthogonalEdgeStyle;rounded=0;orthogonalLoop=1;jettySize=auto;html=1;" edge="1" parent="1" source="yFzUAEVTU4-DVn3m8aGA-18" target="yFzUAEVTU4-DVn3m8aGA-3">
          <mxGeometry relative="1" as="geometry" />
        </mxCell>
        <mxCell id="yFzUAEVTU4-DVn3m8aGA-18" value="ADD 2 TO CONTADOR" style="rounded=1;whiteSpace=wrap;html=1;absoluteArcSize=1;arcSize=14;strokeWidth=2;" vertex="1" parent="1">
          <mxGeometry x="335" y="630" width="130" height="40" as="geometry" />
        </mxCell>
        <mxCell id="yFzUAEVTU4-DVn3m8aGA-19" style="edgeStyle=orthogonalEdgeStyle;rounded=0;orthogonalLoop=1;jettySize=auto;html=1;entryX=0;entryY=0.5;entryDx=0;entryDy=0;entryPerimeter=0;" edge="1" parent="1" source="yFzUAEVTU4-DVn3m8aGA-18" target="yFzUAEVTU4-DVn3m8aGA-12">
          <mxGeometry relative="1" as="geometry">
            <Array as="points">
              <mxPoint x="200" y="650" />
              <mxPoint x="200" y="375" />
            </Array>
          </mxGeometry>
        </mxCell>
      </root>
    </mxGraphModel>
  </diagram>
</mxfile>
